<?xml version="1.0" encoding="UTF-8" standalone="no"?>
<!-- Created with Inkscape (http://www.inkscape.org/) -->
<!-- Traced from a bitmap -->

<svg
   width="320mm"
   height="360mm"
   viewBox="0 0 320 360"
   version="1.1"
   id="svg5"
   xml:space="preserve"
   inkscape:version="1.2.2 (b0a84865, 2022-12-01)"
   sodipodi:docname="cybertusk.svg"
   xmlns:inkscape="http://www.inkscape.org/namespaces/inkscape"
   xmlns:sodipodi="http://sodipodi.sourceforge.net/DTD/sodipodi-0.dtd"
   xmlns="http://www.w3.org/2000/svg"
   xmlns:svg="http://www.w3.org/2000/svg"><sodipodi:namedview
     id="namedview7"
     pagecolor="#ffffff"
     bordercolor="#000000"
     borderopacity="0.25"
     inkscape:showpageshadow="2"
     inkscape:pageopacity="0.0"
     inkscape:pagecheckerboard="0"
     inkscape:deskcolor="#d1d1d1"
     inkscape:document-units="mm"
     showgrid="false"
     inkscape:zoom="0.21973647"
     inkscape:cx="143.35354"
     inkscape:cy="1028.5048"
     inkscape:window-width="1309"
     inkscape:window-height="456"
     inkscape:window-x="0"
     inkscape:window-y="25"
     inkscape:window-maximized="0"
     inkscape:current-layer="layer1" /><defs
     id="defs2" /><g
     inkscape:label="Layer 1"
     inkscape:groupmode="layer"
     id="layer1"
     transform="translate(24.465324,31.780511)"><path
       style="fill:#000000;stroke-width:0.264583"
       d="m 62.503548,318.83147 c -2.564972,-0.1256 -11.573047,-1.09977 -13.626042,-1.47357 -1.960422,-0.35695 -2.410116,-0.73263 -2.921947,-2.44115 -1.586736,-5.29657 -3.11743,-14.01747 -3.812051,-21.71859 -1.147352,-12.72045 -1.256032,-17.34079 -0.637905,-27.11979 l 0.15888,-2.51354 -1.552864,-0.75367 c -4.528187,-2.19768 -7.646662,-4.66248 -8.785974,-6.94433 -0.732244,-1.46653 -1.642493,-4.78499 -3.082716,-11.23855 -1.893744,-8.48571 -1.696206,-7.87995 -2.599465,-7.97152 -0.755642,-0.0766 -0.830199,-0.21273 -2.095351,-3.82551 -1.429777,-4.08286 -1.39954,-4.04849 -3.567028,-4.0555 -1.40961,-0.004 -1.512327,-0.19378 -2.042054,-3.76132 -0.322498,-2.17189 -1.472984,-11.98428 -1.472984,-12.56292 0,-0.062 -0.684609,-0.41492 -1.521354,-0.78436 -4.010945,-1.77083 -9.4022622,-5.49087 -13.6768018,-9.43707 -3.1263672,-2.88624 -3.2361192,-3.18612 -2.6917672,-7.355 0.211685,-1.62118 0.329782,-3.08126 0.262437,-3.24456 -0.06734,-0.16332 -0.880748,-0.80888 -1.807559,-1.43459 -0.926812,-0.62569 -2.660814,-2.05444 -3.853336,-3.175 l -2.168226,-2.03735 1.006551,-2.51354 c 0.553604,-1.38245 2.173777,-4.86309 3.600387,-7.73475 l 2.593835,-5.22121 -0.836809,-1.35998 c -1.02712,-1.66929 -2.059294,-4.13148 -2.067742,-4.9325 -0.0035,-0.32742 0.246557,-0.84815 0.555583,-1.15717 0.497522,-0.49753 0.777779,-0.54679 2.447395,-0.43022 1.0370427,0.0724 2.3906378,0.31101 3.0079901,0.53022 l 1.1224551,0.39857 0.5594086,-0.90514 0.5594085,-0.90514 -1.2991676,-1.37832 c -3.2399632,-3.43735 -5.7988997,-7.23138 -5.5908867,-8.28938 0.04771,-0.24265 0.423069,-0.69193 0.834139,-0.9984 1.490802,-1.11144 6.1626297,-0.5296 10.5395498,1.31262 0.8772022,0.36921 1.6974872,0.63532 1.8228572,0.59136 0.12537,-0.044 0.716344,-0.73478 1.31327,-1.53514 l 1.085326,-1.45521 -1.938276,-0.16186 c -5.4091552,-0.45171 -9.9816341,-3.17768 -12.308047,-7.3377 -3.836672,-6.86061 -8.440854,-23.40511 -10.135703,-36.42127 -0.318529,-2.44626 -0.616476,-6.634711 -0.705792,-9.921876 l -0.154564,-5.688541 -1.01395,-0.875345 c -1.162177,-1.003308 -1.67187,-2.443339 -1.400643,-3.957222 0.216855,-1.210397 0.775954,-1.898194 1.408539,-1.732772 0.80832,0.211381 1.345218,-0.619127 1.369652,-2.118664 0.01228,-0.753589 0.114475,-2.084538 0.2271,-2.957663 0.180996,-1.403181 0.132323,-1.713079 -0.419201,-2.669079 -0.858395,-1.487917 -0.832823,-2.995245 0.069,-4.066998 0.751843,-0.893516 1.92051,-1.598298 2.650294,-1.598298 0.252524,0 1.042914,-0.492249 1.756421,-1.093888 0.713507,-0.601638 2.149919,-1.454999 3.192029,-1.896353 1.797727,-0.761378 2.077622,-0.802261 5.466614,-0.798483 3.7096304,0.0041 6.3054972,0.368591 11.244792,1.578753 2.378038,0.582633 6.420636,1.735275 7.388069,2.106514 0.273859,0.10509 0.455184,-0.262451 0.689872,-1.398344 0.761777,-3.687024 3.841128,-11.252345 6.604256,-16.225281 2.25652,-4.061171 4.261514,-6.885178 6.693506,-9.427715 l 1.298885,-1.357924 -1.967791,-0.94647 c -2.088968,-1.004752 -3.837332,-2.493615 -4.61572,-3.930626 -0.341146,-0.629803 -0.474303,-1.464638 -0.476964,-2.990389 -0.0032,-1.823252 0.109728,-2.355064 0.81453,-3.836458 3.665286,-7.703889 17.718413,-18.891961 31.593232,-25.1522273 6.359364,-2.8693215 15.180575,-5.8541227 21.0258,-7.1144257 1.450491,-0.312743 2.676435,-0.607801 2.724317,-0.655683 0.04788,-0.04788 -0.36498,-0.170291 -0.917467,-0.27202 -1.233085,-0.227045 -3.202231,-1.073079 -3.839128,-1.649463 -1.615353,-1.461876 0.672896,-3.121329 5.451089,-3.953166 3.423502,-0.595998 11.355025,-0.37937 15.348389,0.419203 3.28011,0.655939 6.67977,1.822313 8.15277,2.797104 0.55118,0.364752 1.00215,0.608086 1.00215,0.540739 0,-0.277204 -4.36248,-5.538089 -7.21711,-8.703397 -2.894027,-3.208985 -3.895393,-4.63615 -3.895393,-5.551775 0,-0.711878 1.528048,-1.71957 3.106203,-2.048428 0.90706,-0.189016 2.54153,-0.261898 4.03755,-0.180041 7.70474,0.421582 16.3503,6.114616 22.6359,14.905566 2.73319,3.822625 4.30651,6.785165 6.44927,12.1440566 0.12851,0.321392 0.28228,-1.0810954 0.39161,-3.5718748 0.52311,-11.9178088 1.35646,-16.6687488 2.92383,-16.6687488 0.76197,0 1.28267,0.593825 2.11513,2.412153 1.85174,4.044735 2.63112,9.68463 2.64657,19.1513872 0.0109,6.5860848 -0.0354,7.3284108 -0.59068,9.5092698 -1.04518,4.104783 -4.3207,11.020152 -6.33365,13.37183 -0.47807,0.558535 -0.86923,1.123897 -0.86923,1.25636 0,0.132464 1.75551,1.839944 3.90115,3.7944 2.14564,1.954456 6.64024,6.351524 9.98802,9.771263 15.8311,16.171386 18.57555,18.738196 23.68166,22.148749 6.24599,4.171934 14.05813,7.159556 20.97926,8.02318 3.23636,0.403833 10.28214,0.204919 13.54887,-0.382506 5.69325,-1.023763 15.84399,-4.030302 22.62187,-6.700348 4.47752,-1.763847 9.91582,-4.31262 13.15583,-6.165741 3.14936,-1.801267 14.89001,-9.489619 14.89001,-9.750697 0,-0.09057 -0.10494,-0.53055 -0.23318,-0.977738 -0.32475,-1.132311 0.21839,-2.310808 1.26468,-2.744208 0.98399,-0.40757 2.83901,-0.22274 3.40056,0.338822 0.3443,0.344303 0.4986,0.326756 1.30371,-0.148264 l 0.91315,-0.538784 -0.17703,-1.653236 c -0.50263,-4.693544 2.59485,-7.640087 6.30584,-5.998543 0.94618,0.41855 1.38673,0.833837 1.94469,1.833155 l 0.72136,1.292013 1.72328,-0.625517 c 3.80339,-1.380556 7.48393,-1.740972 10.03681,-0.982848 1.15758,0.343757 1.45312,0.568463 1.90011,1.44467 0.71842,1.408208 0.70829,3.696988 -0.023,5.207765 -0.66921,1.382421 -2.29494,2.825765 -3.85302,3.420808 -1.13694,0.434202 -1.15081,0.454771 -1.15081,1.708393 0,1.181415 0.15521,1.475364 2.25121,4.263533 3.47281,4.619715 4.45725,7.240042 3.45101,9.185888 -1.14937,2.22263 -4.44278,2.054551 -8.31818,-0.424516 -1.37274,-0.878141 -1.53821,-0.919321 -3.02014,-0.751657 -3.09446,0.350096 -7.1696,2.232736 -10.39294,4.801338 -0.94827,0.755658 -4.24833,3.692654 -7.33348,6.526659 -6.81823,6.263206 -8.84968,8.017618 -14.4729,12.499157 -11.84484,9.439997 -18.09723,12.647473 -30.90455,15.854033 -12.25716,3.06883 -20.19564,3.97298 -29.38473,3.34678 -2.52695,-0.17221 -4.65629,-0.2513 -4.73183,-0.17576 -0.0755,0.0755 0.0623,1.65926 0.30636,3.5194 0.24405,1.86013 0.66884,5.74548 0.94398,8.63412 0.27511,2.88863 0.53901,5.29082 0.5864,5.3382 0.0474,0.0474 1.03753,0.12474 2.20035,0.1719 l 2.11423,0.0858 0.078,1.33142 c 0.0631,1.07742 0.18928,1.38027 0.66145,1.5875 1.63807,0.71893 1.6614,6.15184 0.0329,7.66108 -0.74848,0.69368 -0.80227,1.2296 -0.21352,2.12815 0.49122,0.7497 0.32803,2.25354 -0.30126,2.77579 -0.54834,0.45509 -0.51159,2.28102 0.0523,2.59658 0.32287,0.18069 0.7689,0.0464 1.65364,-0.49782 1.91225,-1.17631 5.13945,-2.63892 6.20382,-2.81164 1.33845,-0.2172 2.02004,0.4157 2.01655,1.87256 -0.003,1.28779 -0.81828,3.12984 -2.48404,5.61291 -1.35067,2.01339 -1.38316,2.1278 -0.82878,2.91929 l 0.38875,0.55502 2.19093,-0.88857 c 2.53455,-1.02793 2.99924,-1.08268 3.3664,-0.39663 0.33182,0.61999 -0.26053,2.78767 -1.24192,4.5448 l -0.67535,1.20918 1.32794,1.96792 c 1.84957,2.74096 3.41088,5.94426 4.07226,8.35497 0.45016,1.64091 0.53194,2.49134 0.41425,4.30887 -0.0806,1.24545 -0.22315,2.57141 -0.31668,2.94658 -0.14454,0.57982 0.44069,1.53216 3.90221,6.35 4.91003,6.83392 12.77874,17.64509 13.34815,18.33962 0.3569,0.43532 0.36412,0.64196 0.055,1.57845 -0.45841,1.38903 -2.67004,4.91834 -5.08023,8.1071 -5.59602,7.40362 -15.10549,14.47096 -21.15558,15.72265 -1.96697,0.40693 -1.68984,0.5566 -5.15134,-2.78244 l -2.58045,-2.48917 -0.0748,2.97656 c -0.0633,2.51971 -0.1397,2.97656 -0.49771,2.97656 -0.36058,0 -8.27209,2.59075 -8.50495,2.78508 -0.0449,0.0375 -0.42887,2.34223 -0.85326,5.1217 -2.18228,14.29248 -4.02415,23.48929 -8.29879,41.43801 -0.93575,3.92906 -1.68174,7.15621 -1.6578,7.17145 0.0241,0.0151 2.52402,-0.20703 5.5557,-0.49392 3.0925,-0.29266 5.60424,-0.42095 5.72198,-0.29229 0.11544,0.12613 0.052,1.30091 -0.14097,2.61059 -0.19299,1.30969 -0.42055,2.86634 -0.5057,3.45919 l -0.15486,1.07794 -3.62878,0.3238 c -1.99584,0.17809 -4.01741,0.39118 -4.49236,0.47355 l -0.86358,0.14975 0.17055,2.04499 c 0.0938,1.12477 0.0834,3.20681 -0.023,4.62677 -0.23389,3.11986 -0.46884,3.44289 -2.68501,3.69192 -0.8559,0.0962 -1.98229,0.23791 -2.50307,0.31501 l -0.94686,0.14015 -1.01002,3.75473 c -1.0355,3.8495 -3.71033,12.71852 -3.95542,13.11505 -0.0752,0.12171 -0.76536,0.29263 -1.5336,0.37981 -0.76825,0.0872 -3.00416,0.39968 -4.96869,0.69443 -8.58097,1.28741 -20.93886,1.96416 -24.22549,1.32662 -1.00978,-0.19587 -2.03422,-0.3269 -2.27653,-0.29118 -0.71607,0.10562 -3.77915,-1.41147 -4.37229,-2.16553 -1.181,-1.50141 -3.52965,-16.34456 -4.20487,-26.57425 -0.0987,-1.49473 -0.28871,-2.78527 -0.42232,-2.86784 -0.14664,-0.0906 -0.14722,-0.27194 -0.003,-0.45731 0.22408,-0.28506 0.0983,-3.35214 -0.71636,-17.46512 -0.14152,-2.45186 -0.32358,-4.52419 -0.40458,-4.60518 -0.081,-0.081 -2.76422,0.43249 -5.96272,1.14107 l -5.81546,1.28834 -0.42323,1.86079 c -0.548143,2.41003 -2.519704,16.17826 -2.342095,16.35588 0.04289,0.0429 1.290646,-0.019 2.772795,-0.13764 1.48215,-0.11859 2.73525,-0.17515 2.78466,-0.12576 0.0494,0.0494 -0.0257,1.09461 -0.16685,2.32265 -0.14118,1.22803 -0.25759,2.85067 -0.2587,3.60582 l -0.002,1.37305 -1.84879,0.18217 -1.8488,0.18219 0.169444,3.91475 c 0.217483,5.02465 -0.103925,6.05393 -1.895808,6.07123 -1.650815,0.0159 -1.948397,0.23278 -2.126599,1.54951 -0.461095,3.40701 -1.264428,7.87929 -1.875322,10.44019 -0.807297,3.38426 -0.538991,3.18844 -5.356132,3.9088 -7.129936,1.06619 -18.39586,1.70667 -24.640906,1.40089 z m 12.166658,-0.90017 c 4.86224,-0.2957 12.856991,-1.18099 15.079864,-1.66986 l 1.449646,-0.31882 0.591757,-2.50868 c 0.639045,-2.70917 2.053849,-11.33948 1.886384,-11.50696 -0.05621,-0.0562 -6.094593,0.49352 -13.418622,1.22166 -7.324029,0.72813 -13.364615,1.27566 -13.423522,1.21676 -0.07984,-0.0799 -1.127799,-9.15442 -1.15294,-9.98368 -0.0031,-0.10282 -3.939918,0.13772 -4.137596,0.25284 -0.01778,0.0103 -0.105276,0.47498 -0.194427,1.03251 -0.280352,1.7532 -0.81747,2.00633 -4.62893,2.18127 -1.840519,0.0845 -3.429977,0.0846 -3.532127,1.6e-4 -0.10215,-0.0844 -0.216347,-0.60809 -0.253767,-1.16371 -0.03742,-0.55563 -0.175334,-1.07657 -0.306475,-1.15761 -0.131141,-0.081 -2.3089,0.006 -4.839462,0.19418 -4.129736,0.30654 -4.601025,0.39036 -4.601025,0.8183 0,2.45991 2.798302,16.59012 3.690348,18.63463 0.43008,0.98573 0.585917,1.09908 1.894866,1.37832 1.548858,0.33041 10.500043,1.33538 13.067911,1.46714 3.758923,0.19291 8.769972,0.15836 12.828117,-0.0884 z m 60.726054,-0.79319 c 5.18826,-0.34153 10.97208,-0.98388 15.14895,-1.68251 l 3.3577,-0.56161 1.1366,-3.57187 c 1.3572,-4.26527 3.61867,-12.42042 3.47638,-12.53625 -0.0555,-0.0452 -1.62996,0.0694 -3.49885,0.25466 -1.86888,0.18521 -5.91701,0.52324 -8.99583,0.75113 -3.07883,0.22788 -6.20535,0.46426 -6.94783,0.5253 l -1.34995,0.11094 -0.17021,-2.95341 c -0.0936,-1.62439 -0.17074,-3.79677 -0.1714,-4.82754 0,-1.98969 -0.0972,-2.27499 -0.68852,-2.04808 -0.22948,0.0881 -0.371,0.53133 -0.371,1.16207 0,1.74017 -1.06635,2.3095 -5.19118,2.77159 -1.85933,0.20831 -1.90926,0.16796 -2.13344,-1.72495 -0.14409,-1.21668 -0.2159,-1.32911 -0.84818,-1.32805 -0.82087,0.003 -14.1306,1.30797 -14.20418,1.39438 -0.24432,0.28689 1.61081,13.02499 2.68669,18.44821 0.83719,4.22005 0.96517,4.36197 4.80414,5.32833 3.25755,0.82003 6.9509,0.94904 13.96011,0.48766 z M 82.272008,302.1919 c 12.58212,-1.24698 14.75491,-1.52384 15.05435,-1.91823 0.546243,-0.71948 0.419883,-9.01411 -0.13231,-8.68526 -0.08931,0.0532 -1.233938,0.17248 -2.543625,0.26508 -5.070803,0.35857 -28.045304,2.31429 -28.125198,2.39417 -0.117134,0.11713 0.809223,9.40154 0.938046,9.40154 0.05738,0 6.721316,-0.6558 14.808737,-1.4573 z m 65.956542,-3.32607 c 8.65658,-0.6853 15.92262,-1.50842 16.25568,-1.84148 0.31803,-0.31803 0.5257,-8.46452 0.22678,-8.89603 -0.15627,-0.22558 -0.77555,-0.24149 -2.32842,-0.0597 -1.83689,0.215 -23.91106,2.35143 -24.29568,2.35143 -0.13814,0 -0.0455,2.63602 0.24646,7.01146 l 0.14123,2.11667 1.50353,-0.0741 c 0.82695,-0.0408 4.53964,-0.31446 8.25042,-0.60822 z m -88.709201,-1.97509 c 0.980102,-0.21172 1.221431,-1.09927 1.344629,-4.94509 0.180041,-5.62023 -0.389089,-6.28198 -4.954879,-5.76125 -1.215607,0.13864 -2.252845,0.29475 -2.304973,0.34687 -0.229569,0.22955 -0.164185,9.75349 0.07118,10.36828 0.100732,0.2631 4.616926,0.2563 5.844042,-0.009 z m -10.972572,-1.99835 4.167187,-0.31345 v -3.09369 c 0,-1.70154 -0.05249,-3.14616 -0.116641,-3.21032 -0.06415,-0.0642 -2.058448,0.0278 -4.431771,0.20423 -2.373321,0.17647 -4.598337,0.32819 -4.944481,0.33713 l -0.629353,0.0161 0.191476,2.95431 c 0.226372,3.49269 0.284723,3.69337 1.028668,3.53774 0.312251,-0.0653 2.442962,-0.25979 4.734915,-0.43219 z m 33.481148,-2.78744 c 10.229082,-0.84449 18.702045,-1.59953 18.828815,-1.67788 0.18747,-0.11586 0.82611,-5.54262 0.67774,-5.75897 -0.0239,-0.0349 -1.58261,0.0534 -3.463765,0.19621 -1.881161,0.14277 -10.087792,0.73295 -18.236959,1.31154 -8.149167,0.57859 -15.590573,1.12446 -16.536458,1.21307 l -1.719792,0.16113 v 3.17801 3.17805 l 0.926042,-0.13288 c 0.509323,-0.0731 9.295291,-0.82381 19.524377,-1.66828 z m 50.457915,1.49241 c 0.87312,-0.14255 1.92286,-0.39772 2.33273,-0.56703 l 0.74519,-0.30784 -0.1675,-3.54504 c -0.0921,-1.94977 -0.21688,-3.80138 -0.27723,-4.1147 -0.23003,-1.19451 -0.93364,-2.2598 -1.70302,-2.57849 -0.79793,-0.33052 -3.19299,-0.25207 -4.47133,0.14647 -0.47892,0.1493 -0.6015,0.10737 -0.50929,-0.17423 0.27453,-0.83833 3.60158,-1.34075 5.10169,-0.77041 0.37886,0.14404 0.95589,0.55007 1.28231,0.90225 l 0.59346,0.64037 13.71994,-1.29106 c 7.54594,-0.71009 13.78826,-1.3594 13.87176,-1.44293 0.0835,-0.0835 0.63727,-2.20303 1.2306,-4.71006 l 1.07876,-4.55821 -4.37549,0.006 c -6.22091,0.008 -9.81144,-0.87058 -8.58198,-2.10007 0.2431,-0.24308 3.74976,-2.09667 7.79257,-4.11909 4.0428,-2.0224 7.40587,-3.77087 7.47352,-3.88551 0.0676,-0.11462 0.20355,-0.58441 0.30205,-1.044 l 0.17907,-0.83555 -1.00785,0.23395 c -1.2908,0.29961 -3.81159,0.30607 -4.27733,0.0108 -0.22228,-0.14083 -0.29237,-0.43754 -0.18402,-0.77896 0.20487,-0.64545 3.12113,-2.63911 5.08413,-3.4757 0.90612,-0.38615 1.41332,-0.77501 1.50638,-1.15482 0.39613,-1.61671 2.64837,-14.28798 3.46429,-19.49032 0.5135,-3.27422 0.99767,-6.32846 1.0759,-6.7872 l 0.14227,-0.83404 -1.92537,0.6056 c -3.1091,0.97793 -3.57233,1.03621 -3.84855,0.48419 -0.13806,-0.27596 -0.15344,-1.71728 -0.0362,-3.39043 0.11218,-1.60072 0.24175,-4.61531 0.28792,-6.69906 0.0814,-3.67644 0.0683,-3.78473 -0.44524,-3.65726 -0.29105,0.0723 -2.61276,0.77851 -5.15938,1.56946 -2.54661,0.79092 -4.94152,1.51217 -5.32199,1.60279 -0.64688,0.15402 -0.70032,0.28459 -0.82396,2.01234 -0.0789,1.10194 -0.31589,2.12799 -0.58732,2.54225 -0.93443,1.42613 -5.02185,2.47462 -6.32312,1.622 l -0.63654,-0.41706 -0.11414,2.98199 c -0.13314,3.47871 -0.53401,4.44095 -2.24462,5.38824 -1.24462,0.68924 -3.87284,1.03277 -4.885,0.63854 -0.59555,-0.23196 -0.7388,-0.51257 -0.99192,-1.94328 -0.16272,-0.91972 -0.43953,-3.25655 -0.61511,-5.19295 -0.31607,-3.48536 -0.32543,-3.5192 -0.93257,-3.36683 -3.11867,0.78275 -7.90612,1.26281 -13.84845,1.38864 l -6.50079,0.13769 0.0932,2.94521 c 0.0513,1.61986 0.15417,3.43787 0.22868,4.04003 l 0.13547,1.09482 7.06585,0.19619 7.06583,0.19621 1.35001,0.86352 c 3.39141,2.1693 3.31364,5.48656 -0.17309,7.38429 -1.07788,0.58666 -1.70428,0.75006 -2.74217,0.71538 -0.73985,-0.0249 -5.69094,-0.22109 -11.00246,-0.43635 -5.31151,-0.21524 -10.49657,-0.39177 -11.52236,-0.3923 h -1.86508 l -0.33197,0.91802 c -0.99927,2.76344 -4.73895,2.63959 -6.25663,-0.20719 -0.29104,-0.54594 -0.76729,-1.04085 -1.05833,-1.0998 -0.29104,-0.059 -12.590368,-0.55115 -27.331837,-1.09381 l -26.802668,-0.9866 -0.731964,0.80139 c -1.596586,1.74802 -4.015812,1.70162 -5.604272,-0.10755 l -0.855538,-0.97441 -5.550784,-0.22447 c -3.052932,-0.12346 -5.605288,-0.16997 -5.671902,-0.10335 -0.158184,0.15817 2.666323,12.71818 3.530121,15.69773 0.860004,2.96646 1.35881,3.90726 2.866623,5.40684 1.262274,1.2554 7.029085,4.72736 7.851968,4.72736 0.251661,0 0.52247,0.10502 0.601803,0.23339 0.07933,0.12835 0.004,3.41802 -0.167407,7.31036 -0.243399,5.5272 -0.240303,8.24026 0.01413,12.3889 0.179181,2.92156 0.373428,5.35953 0.431663,5.41777 0.05823,0.0582 2.345473,-0.0556 5.082759,-0.253 l 4.97689,-0.35964 0.08223,-0.71218 c 0.07319,-0.63386 0.244203,-0.74581 1.555102,-1.01796 0.81008,-0.16817 2.460194,-0.2644 3.666924,-0.21386 1.861841,0.078 2.293694,0.18555 2.852139,0.7103 l 0.658088,0.61838 17.024009,-1.22076 c 9.363202,-0.67141 17.156316,-1.26704 17.318027,-1.3236 0.16171,-0.0566 0.376885,-0.85704 0.478168,-1.77888 0.442317,-4.02582 1.543516,-11.69101 2.046282,-14.24373 0.574387,-2.91635 1.188466,-4.06665 1.869326,-3.50158 0.26203,0.21746 2.42889,-0.1796 8.54724,-1.56628 10.77492,-2.44202 19.23259,-4.18909 19.4949,-4.02696 0.11589,0.0716 0.21069,0.30179 0.21069,0.51147 0,0.26318 -0.30732,0.38301 -0.99219,0.38693 -0.5457,0.003 -3.19484,0.48275 -5.88698,1.0659 -2.69213,0.58311 -5.78776,1.24724 -6.87917,1.47579 -1.0914,0.22855 -2.07401,0.49932 -2.18355,0.60171 -0.10956,0.1024 -0.0243,3.33505 0.18928,7.18365 0.21366,3.84863 0.46787,8.66437 0.56494,10.70166 0.0971,2.03729 0.25003,3.82513 0.33989,3.97298 0.1085,0.17851 2.49719,0.0519 7.10872,-0.37687 6.9079,-0.64225 6.94531,-0.64903 6.94531,-1.26103 0,-0.64522 0.37047,-0.82151 0.67863,-0.32293 0.0994,0.16082 0.41039,1.97652 0.69112,4.0349 0.28075,2.0584 0.54845,3.98065 0.59491,4.2717 0.0465,0.29104 0.0997,0.97565 0.11824,1.52135 0.0387,1.13625 0.14857,1.16478 2.81189,0.72993 z M 72.648027,281.38507 c -2.238798,-0.50266 -1.490623,-1.73892 2.123387,-3.50869 4.086426,-2.00107 4.405321,-2.08076 8.10505,-2.02557 6.037792,0.0901 10.583334,0.94871 10.583334,1.99911 0,0.69162 -1.561799,2.17514 -2.892589,2.74764 -0.732415,0.31507 -2.393911,0.67739 -3.772239,0.82257 -3.060028,0.32234 -12.661056,0.29855 -14.146943,-0.0351 z m 14.161204,-0.49559 c 2.679287,-0.28221 4.403717,-0.89855 5.45483,-1.94966 0.807289,-0.80727 0.83352,-1.11181 0.128267,-1.48926 -0.861962,-0.4613 -5.926037,-1.02926 -9.515864,-1.06725 -2.774965,-0.0293 -3.529523,0.053 -4.687996,0.51144 -2.289892,0.9062 -5.46713,2.58387 -5.989156,3.1624 -0.483983,0.53639 -0.478559,0.54732 0.396875,0.79928 1.179502,0.33949 11.085111,0.36253 14.213044,0.0331 z M 69.798489,276.7751 c -0.228677,-0.22868 -0.415775,-0.53176 -0.415775,-0.67349 0,-0.77399 2.64789,-2.46449 4.928304,-3.14638 0.925354,-0.2767 1.298072,-0.25799 2.444285,0.12272 0.743841,0.24707 1.421055,0.56023 1.50492,0.69593 0.563116,0.91115 -1.576125,2.21832 -4.920305,3.00654 -2.181429,0.51417 -3.023214,0.5129 -3.541429,-0.005 z m 3.886115,-0.62627 c 2.353244,-0.60184 4.242512,-1.50079 4.095573,-1.94873 -0.05711,-0.1741 -0.689975,-0.46487 -1.406377,-0.64619 -1.087361,-0.27522 -1.494425,-0.26485 -2.464044,0.0627 -2.246042,0.75875 -4.235849,2.18141 -3.872746,2.76892 0.254236,0.41137 1.40592,0.33663 3.647594,-0.2367 z m 14.971154,-1.34665 c -0.270983,-0.15816 -0.385503,-0.45823 -0.299871,-0.78568 0.121322,-0.46394 0.36036,-0.5298 1.922841,-0.5298 2.618171,0 4.239403,0.26922 4.239403,0.70398 0,0.20209 -0.305406,0.48358 -0.678683,0.6255 -0.870891,0.3311 -4.609779,0.32102 -5.18369,-0.014 z m 4.671748,-0.52173 c -0.197305,-0.31924 -2.961243,-0.31924 -3.704167,0 -0.354853,0.15248 0.195017,0.23352 1.669262,0.24599 1.402649,0.0119 2.139236,-0.0772 2.034905,-0.24599 z m 28.283534,17.03449 c 3.79833,-0.38095 6.94505,-0.72756 6.99273,-0.77021 0.0477,-0.0427 -0.10115,-1.34194 -0.33073,-2.88726 -0.22958,-1.54535 -0.41741,-2.84234 -0.41741,-2.88227 0,-0.0399 -2.82773,0.1959 -6.28385,0.52401 -3.45612,0.32808 -6.67081,0.60246 -7.14375,0.60971 -0.84789,0.013 -0.85987,0.0308 -0.85802,1.26997 0.004,2.73669 0.32345,4.82864 0.7371,4.82864 0.21884,0 3.5056,-0.31167 7.30393,-0.69259 z m 27.54355,-2.76802 c 5.67531,-0.57743 11.50937,-1.22497 12.96458,-1.43897 1.45521,-0.21399 2.90359,-0.33049 3.21863,-0.25889 0.31507,0.0716 2.26253,-0.0482 4.32777,-0.26609 2.0652,-0.21794 3.84394,-0.39627 3.95274,-0.39627 0.23058,0 0.92713,-5.5213 0.72239,-5.72606 -0.0758,-0.0758 -8.80972,0.68453 -19.4088,1.68953 -14.32158,1.35794 -19.25291,1.91058 -19.20039,2.15169 0.0389,0.17846 0.13578,1.24111 0.21537,2.36144 0.23871,3.36052 0.19,3.26871 1.63928,3.08869 0.68733,-0.0854 5.89312,-0.62765 11.56843,-1.20507 z m 15.05704,-17.92767 1.29873,-0.17526 0.83709,-3.57187 c 0.4604,-1.96453 0.9211,-3.90348 1.02376,-4.30877 0.1778,-0.70188 -0.1654,-0.55731 -7.22252,3.04271 -4.07506,2.07878 -7.41212,3.86432 -7.41572,3.96785 -0.008,0.24016 1.66503,0.69186 3.62678,0.97904 1.8502,0.27083 6.07203,0.30649 7.85188,0.0663 z m 3.63622,-11.80946 c 0.24035,-0.097 0.51639,-0.61465 0.61339,-1.15028 0.097,-0.53562 0.24389,-1.25454 0.32641,-1.59766 0.13661,-0.56787 0.0994,-0.59668 -0.41494,-0.32141 -0.31076,0.16631 -0.565,0.23667 -0.565,0.15631 0,-0.23455 -2.41252,1.06294 -3.63802,1.9566 -1.67603,1.22221 -1.49164,1.44462 1.05834,1.27664 1.20054,-0.0791 2.37947,-0.22318 2.61982,-0.3202 z m -61.683,-17.53648 c 0.84644,-1.07606 1.13064,-2.61831 1.2073,-6.55145 0.0816,-4.18685 -0.36453,-7.06742 -1.22878,-7.93411 -0.68439,-0.68631 -2.50633,-0.66985 -3.72458,0.0337 -1.65955,0.95835 -1.84475,1.7326 -1.66902,6.97777 0.0853,2.54662 0.26591,4.74332 0.40132,4.88157 0.13542,0.13824 0.24621,0.51607 0.24621,0.8396 0,0.83394 1.21536,2.17334 2.20473,2.42969 1.17197,0.30369 1.95405,0.0972 2.56282,-0.67675 z m 28.44303,-2.0393 c 2.0942,-1.2273 2.62511,-3.08255 1.35765,-4.74427 -1.40594,-1.8433 -1.82496,-1.9164 -12.8724,-2.24626 -5.45703,-0.16293 -11.0232,-0.3669 -12.36927,-0.45328 l -2.44739,-0.15703 -0.0223,2.20749 c -0.0123,1.21412 -0.10786,2.89211 -0.21239,3.72886 l -0.19005,1.52135 2.13061,0.0262 c 1.17183,0.0143 5.58342,0.17466 9.80352,0.35613 12.60261,0.54195 13.51429,0.52724 14.82204,-0.23915 z m -90.178316,-1.23235 0.954317,-0.58981 -0.153606,-4.13004 c -0.247113,-6.64427 -1.124844,-8.21076 -4.601795,-8.21288 -1.451173,0 -1.695931,0.0772 -2.182812,0.69618 -0.425609,0.54107 -0.54837,1.07791 -0.54837,2.39802 0,2.64239 0.769418,7.24765 1.348745,8.07275 0.276836,0.39429 0.503338,0.82003 0.503338,0.94608 0,0.2841 1.051068,1.25711 1.5875,1.4696 0.673224,0.26667 2.092042,-0.0315 3.092683,-0.6499 z m 55.722956,-2.01964 c -0.15301,-4.36891 -0.20487,-4.56383 -1.214606,-4.56539 -0.46635,0 -9.777595,-0.29787 -20.691658,-0.66035 -10.914062,-0.36247 -22.713844,-0.7376 -26.221738,-0.83362 l -6.377987,-0.17457 0.245091,1.69481 c 0.134803,0.93218 0.176332,2.49852 0.09229,3.48078 l -0.152805,1.78594 1.787784,0.0175 c 1.643396,0.0161 51.692939,1.99181 52.345929,2.06635 0.19634,0.0225 0.25577,-0.86781 0.1877,-2.81149 z m -62.131294,-0.92604 c -0.19525,-0.76399 -0.492821,-2.35437 -0.661268,-3.5342 l -0.306269,-2.14514 -6.714519,-0.19018 c -3.692985,-0.10459 -6.830594,-0.11843 -6.972464,-0.0308 -0.152384,0.0942 0.210458,1.48299 0.886614,3.39366 1.140317,3.22222 1.147868,3.2345 2.036458,3.30988 0.490543,0.0416 3.213613,0.17235 6.05127,0.29054 2.837656,0.11816 5.356431,0.23294 5.597278,0.25506 0.397693,0.0365 0.405305,-0.0874 0.0829,-1.34887 z m 107.643004,-3.52936 c 1.65947,-0.56544 2.48513,-1.59584 2.68206,-3.34709 0.50159,-4.46047 0.21722,-8.1543 -0.62535,-8.12323 -0.23013,0.008 -1.90671,0.34893 -3.72573,0.75657 l -3.30729,0.74118 0.0639,2.43737 c 0.0845,3.22543 0.72322,7.44021 1.17041,7.72369 0.56666,0.35922 2.40663,0.26651 3.74203,-0.18849 z m -27.21477,-2.57188 c -0.18976,-2.808 -1.97091,-44.83301 -1.97091,-46.50182 v -1.27153 l -7.32114,-7.7562 c -4.02663,-4.2659 -10.00912,-10.61369 -13.294426,-14.10619 -3.285302,-3.4925 -6.370325,-6.75855 -6.855608,-7.2579 l -0.882332,-0.9079 0.190436,-7.0663 c 0.182899,-6.78673 0.170667,-7.07214 -0.309187,-7.21386 -0.274791,-0.0812 -5.559776,-1.29233 -11.744412,-2.69148 -14.702266,-3.32611 -18.467522,-4.28157 -31.102983,-7.89257 -11.290313,-3.22658 -14.348103,-4.0248 -14.569572,-3.80334 -0.07654,0.0765 -0.316008,1.01349 -0.532143,2.0821 -0.329592,1.62954 -1.912364,6.64034 -2.59293,8.2088 -0.162767,0.37512 0.215617,0.56922 2.407986,1.23521 12.049159,3.66029 15.937315,4.92601 22.174541,7.21855 8.758844,3.21938 8.051306,2.93085 7.509235,3.0622 -0.238694,0.0578 -3.215256,-0.92593 -6.614583,-2.18615 -3.399324,-1.26021 -7.371218,-2.68671 -8.826426,-3.17 -3.154505,-1.04765 -16.705398,-5.15105 -16.995214,-5.1464 -0.111488,0.002 -0.832096,1.22708 -1.601354,2.72287 l -1.398648,2.71961 0.410686,0.98292 c 0.490985,1.17508 0.804886,3.83315 0.565372,4.78745 -0.09435,0.3759 -0.459316,0.87202 -0.811051,1.10248 -0.767731,0.50304 -1.365549,0.26714 -2.804409,-1.10662 l -0.938784,-0.89631 -0.897818,0.92632 c -0.810998,0.83673 -0.890947,1.05585 -0.826728,2.26577 0.0903,1.7014 -0.456025,2.63184 -1.545344,2.63184 -0.678598,0 -1.278443,-0.53568 -1.990209,-1.77734 -0.01815,-0.0317 -0.443656,0.0724 -0.945578,0.23114 -0.657516,0.208 -1.307981,0.80823 -2.327217,2.14749 l -1.414629,1.85881 0.819316,0.64121 c 0.731309,0.57233 0.819317,0.79102 0.819317,2.03582 0,1.59775 -0.774493,4.06522 -1.728478,5.50679 -1.313489,1.98481 -4.3056041,2.71124 -5.6929019,1.38212 l -0.7034636,-0.67396 -0.4640765,0.70828 -0.4640792,0.70827 1.1530622,0.99309 1.1530621,0.99309 v 1.83949 c 0,1.5934 -0.1013381,1.98572 -0.757518,2.93258 -0.8241348,1.18923 -2.9505963,2.43354 -4.1587923,2.43354 -0.4668335,0 -0.8603588,-0.22738 -1.1447753,-0.66146 -0.2383738,-0.3638 -0.5409065,-0.66146 -0.6722955,-0.66146 -0.522208,0 -6.628077,12.8932 -6.628077,13.99588 0,0.62328 2.866207,3.30869 5.490104,5.14381 1.8820737,1.31633 1.918229,1.36332 1.918229,2.49349 0,0.63354 -0.1365938,2.26338 -0.3035405,3.62185 -0.2921505,2.37729 -0.2810065,2.50646 0.2969498,3.4416 0.803738,1.30048 5.0552403,5.05751 8.432456,7.45175 3.1385727,2.22504 8.3631697,4.91501 11.4673727,5.90415 2.052685,0.65408 5.87235,0.0805 6.780575,-1.01828 3.169661,-3.8345 11.994729,-21.53877 14.044467,-28.17502 0.686393,-2.22229 0.687038,-2.1829 -0.03859,-2.35731 -1.6002,-0.38465 -4.843082,-1.30095 -5.044303,-1.42532 -0.125444,-0.0775 -0.126172,-0.24165 -0.0016,-0.3662 0.124547,-0.12454 0.982078,-0.0493 1.913382,0.16801 0.928224,0.21654 1.725514,0.35587 1.771758,0.30963 0.374701,-0.3747 -3.895206,-6.06492 -5.804175,-7.73484 -0.911585,-0.79743 -1.205328,-1.18862 -0.892545,-1.18862 1.023392,0 6.793293,6.89385 7.231628,8.64031 0.08651,0.3447 0.354418,0.62011 0.603205,0.62011 0.246161,0 0.560676,0.10184 0.698921,0.2263 0.138245,0.12448 1.441979,0.63 2.897188,1.12339 3.212261,1.08911 9.931474,4.42976 12.951452,6.43919 1.216374,0.80934 2.276665,1.47154 2.356202,1.47154 0.07954,0 0.933214,-1.1311 1.897067,-2.51355 1.636186,-2.34677 2.472349,-3.13393 2.178132,-2.05052 -0.06915,0.25467 -5.930796,8.7974 -13.025868,18.98386 -7.095075,10.18646 -12.95871,18.66966 -13.030304,18.85156 -0.163766,0.41608 -0.867306,0.43635 -0.867306,0.0249 0,-0.16817 0.316902,-0.72123 0.704228,-1.22904 0.840182,-1.10154 1.165794,-0.76957 -3.614645,-3.68536 -1.819011,-1.10947 -3.881165,-2.41959 -4.582565,-2.91137 -2.61344,-1.83237 -2.941651,-1.95164 -4.174059,-1.51683 -1.50114,0.52965 -3.578468,0.48684 -5.507304,-0.11348 -0.88609,-0.2758 -1.61003,-0.42463 -1.608754,-0.33072 0.01013,0.74652 1.126363,10.04866 1.47248,12.27095 l 0.435681,2.79736 1.095283,0.14615 c 0.602403,0.0804 4.65627,0.22701 9.008591,0.32581 7.203454,0.16357 7.898683,0.14155 7.750228,-0.24532 -0.161028,-0.41963 0.130358,-1.62446 0.659215,-2.72577 0.384331,-0.80033 1.325271,-1.15376 3.070423,-1.15329 2.12657,0 3.198212,0.60471 4.049409,2.28285 0.378629,0.74647 0.754435,1.60968 0.835125,1.91823 0.131416,0.50253 0.335415,0.5611 1.957414,0.56206 0.995889,0 12.585864,0.35729 25.7555,0.79269 28.742712,0.95028 26.458332,0.92329 26.458332,0.3126 0,-0.26463 0.18071,-1.08966 0.40158,-1.8334 0.45919,-1.54625 1.32602,-2.23994 3.37203,-2.69846 0.99951,-0.22399 1.44663,-0.19709 2.28237,0.13732 1.12288,0.44929 1.33897,0.81735 1.9843,3.38003 0.21426,0.85087 0.464,1.62147 0.55497,1.71243 0.17026,0.17026 9.63621,0.51618 9.99205,0.36513 0.10932,-0.0464 0.13287,-1.05953 0.0524,-2.25137 z M 91.220462,194.11483 c -0.04179,-0.0745 -0.16016,-2.00012 -0.26304,-4.27921 l -0.187061,-4.1438 1.675448,-0.15365 c 3.595703,-0.32972 17.956221,-0.97721 18.208991,-0.82097 0.34128,0.21093 0.36108,8.24711 0.0208,8.45738 -0.13566,0.0839 -1.8323,0.21717 -3.77031,0.29628 -1.93801,0.0791 -6.24282,0.28683 -9.56626,0.46159 -3.323439,0.17478 -6.076807,0.25683 -6.118598,0.18238 z m 10.838298,-0.9279 c 3.78354,-0.21116 7.20658,-0.38711 7.60677,-0.39102 l 0.7276,-0.007 v -3.83646 -3.83646 l -0.85989,0.0114 c -2.44773,0.0322 -17.94988,0.98317 -18.075518,1.10882 -0.08057,0.0806 -0.06247,1.76649 0.04023,3.7465 l 0.186724,3.60002 1.747454,-0.006 c 0.961102,-0.003 4.843081,-0.17862 8.62662,-0.38976 z m 3.30729,-9.68705 c -1.67499,-0.65723 -2.16511,-3.02591 -0.88996,-4.30105 0.81181,-0.81181 2.51483,-0.95954 3.45667,-0.29984 1.54942,1.08525 1.21404,3.76356 -0.56432,4.50662 -1.05995,0.44288 -1.10816,0.44513 -2.00239,0.0943 z m 2.50031,-1.04063 c 1.26356,-1.24072 0.25424,-3.53463 -1.55523,-3.53463 -1.61867,0 -2.62767,1.53263 -1.94554,2.95524 0.67032,1.39795 2.3791,1.68077 3.50077,0.57939 z m -13.215937,-2.3363 c -1.347177,-0.61534 -2.681658,-1.98287 -3.063261,-3.13915 -0.19916,-0.60345 -0.420526,-0.85265 -0.671791,-0.75623 -0.671602,0.25772 -8.396962,0.70706 -9.89099,0.5753 -0.800365,-0.0706 -1.52995,-0.13403 -1.6213,-0.141 -0.247947,-0.0189 -0.73637,-3.57791 -1.145517,-8.34704 -0.39956,-4.65739 -0.348705,-4.93064 1.093576,-5.87566 1.030177,-0.675 5.024729,-0.75712 10.048047,-0.20657 2.306095,0.25274 4.240977,0.50272 4.299736,0.55549 0.05876,0.0528 0.189275,1.52778 0.290041,3.27778 0.100767,1.75001 0.235842,3.23446 0.30017,3.29879 0.06433,0.0643 0.588656,-0.051 1.165167,-0.25638 6.123589,-2.18106 10.619339,5.31889 5.900039,9.84262 -1.74069,1.66854 -4.543896,2.15863 -6.703917,1.17205 z m 5.637007,-0.8947 c 1.56859,-1.03804 2.52132,-2.80082 2.51961,-4.66191 -0.002,-1.64912 -0.44344,-2.70615 -1.58456,-3.79008 -2.241892,-2.12951 -5.496166,-2.02202 -7.83685,0.25885 -2.777906,2.70693 -1.89592,7.26423 1.700075,8.78444 0.342677,0.14486 1.410115,0.23199 2.372085,0.19361 1.383284,-0.0552 1.975,-0.21933 2.82964,-0.78491 z m -13.442216,-3.11482 c 1.964532,-0.14845 3.750469,-0.32602 3.96875,-0.3946 0.250452,-0.0787 0.418841,-0.51305 0.456412,-1.17734 0.07761,-1.37208 0.607182,-2.6056 1.608011,-3.74548 l 0.807704,-0.91992 -0.151495,-3.07602 c -0.08332,-1.69181 -0.225923,-3.19645 -0.316895,-3.34364 -0.265472,-0.42955 -7.5668,-1.1589 -10.473528,-1.04624 -1.995538,0.0773 -2.824665,0.22153 -3.373438,0.58663 -0.681556,0.45344 -0.727273,0.60356 -0.722376,2.37188 0.0055,1.98783 0.650465,8.91853 0.935707,10.05502 0.244652,0.97477 1.681985,1.1113 7.261148,0.68971 z m -3.054733,-28.15949 c -0.787379,-0.78737 -0.828112,-1.55314 -0.120267,-2.26098 1.040607,-1.04061 2.910417,-0.28802 2.910417,1.17142 0,0.66681 -1.089763,1.739 -1.767499,1.739 -0.205271,0 -0.665464,-0.29225 -1.022651,-0.64944 z m 1.74921,-0.15362 c 0.991336,-0.53055 0.483392,-2.10736 -0.678852,-2.10736 -1.132302,0 -1.66943,1.54691 -0.727604,2.09547 0.592217,0.34494 0.781161,0.34653 1.406456,0.0119 z m -3.399618,-5.16613 c -0.743058,-0.52046 -1.380275,-1.73452 -1.380275,-2.62977 0,-2.26505 2.447168,-3.70632 4.494995,-2.64735 1.101096,0.5694 1.590421,1.41017 1.590421,2.73268 0,0.9644 -0.150529,1.30874 -0.899583,2.05779 -0.749054,0.74906 -1.093391,0.89959 -2.057794,0.89959 -0.637019,0 -1.423511,-0.18583 -1.747764,-0.41294 z m 3.712954,-0.93565 c 0.842174,-1.02243 0.692711,-2.51335 -0.348869,-3.48006 -1.089758,-1.01142 -2.402041,-0.99396 -3.441795,0.0458 -0.560197,0.5602 -0.773399,1.0287 -0.773399,1.69949 0,1.08023 1.024054,2.469 1.92726,2.61366 0.910238,0.14579 2.126789,-0.2597 2.636803,-0.87888 z m 85.501273,85.32508 c 1.97874,-0.56748 5.50875,-1.74474 10.80706,-3.60415 l 0.7276,-0.25538 v -13.41297 c 0,-10.93261 -0.42703,-36.287 -0.61378,-36.44148 -0.0262,-0.0217 -2.35161,0.34216 -5.16752,0.80858 -3.6377,0.60254 -5.15326,0.76097 -5.23526,0.54728 -0.26381,-0.6875 -0.81301,-8.23165 -0.63439,-8.71451 0.16711,-0.45173 0.96062,-0.66379 5.69659,-1.5224 3.0263,-0.54866 5.55294,-1.04808 5.61467,-1.10983 0.0617,-0.0618 0.23987,-4.92145 0.39579,-10.79932 l 0.2835,-10.68704 -0.69303,-0.74777 c -0.38115,-0.41128 -0.77163,-1.16687 -0.86772,-1.67909 -0.14716,-0.78446 -0.0751,-1.00791 0.45706,-1.4171 0.34751,-0.26719 0.78063,-0.48844 0.96253,-0.49168 0.59529,-0.0106 0.34817,-0.59595 -0.60499,-1.43305 -0.76505,-0.67191 -0.97809,-1.08953 -1.16806,-2.28981 -0.35565,-2.24694 0.0151,-4.69919 0.80211,-5.30412 0.35213,-0.27068 0.78904,-0.49478 0.97094,-0.49802 0.19765,-0.004 0.33073,-0.36281 0.33073,-0.89289 v -0.88701 l -2.28849,-0.17591 c -1.25864,-0.0967 -2.33277,-0.13158 -2.38693,-0.0774 -0.0542,0.0542 0.006,4.25318 0.13369,9.33114 l 0.2322,9.23265 -4.9975,10.1554 -4.99751,10.1554 0.1401,21.33001 c 0.12668,19.28916 -0.1334,38.41914 -0.55348,40.71075 -0.0867,0.47294 -0.0665,0.8599 0.045,0.8599 0.11142,0 1.28553,-0.31057 2.60914,-0.69017 z m -17.9255,-4.20198 c 1.79123,-0.53194 2.19197,-1.0574 2.52677,-3.31324 0.47612,-3.20789 -0.53697,-10.56526 -1.60986,-11.69136 -0.47373,-0.4972 -2.60836,-1.06677 -2.80511,-0.74845 -0.0684,0.11073 -0.416,0.14557 -0.7724,0.0774 -1.08439,-0.2073 -2.47626,0.41005 -2.91716,1.29384 -0.36393,0.72954 -0.33935,1.23897 0.27686,5.73778 0.37195,2.71545 0.73335,5.40409 0.80309,5.97474 0.0698,0.57066 0.35938,1.49339 0.64363,2.05052 0.46206,0.90573 0.62314,1.01296 1.52169,1.01296 0.55272,0 1.60235,-0.1774 2.33249,-0.39423 z m 40.31708,-0.93133 c 5.501,-2.1649 12.7903,-7.79172 17.21334,-13.28748 3.95954,-4.91985 6.27623,-8.83502 5.964,-10.07904 -0.1573,-0.62672 -12.43341,-17.71327 -12.81224,-17.83273 -0.10319,-0.0325 -0.86635,0.97949 -1.69587,2.24896 -3.33949,5.11069 -7.10398,9.08875 -13.72378,14.50239 -1.95437,1.5983 -3.8771,3.13984 -4.2727,3.42567 l -0.7193,0.51967 -0.004,7.80521 -0.005,7.8052 3.13973,2.94826 3.13973,2.94825 1.1648,-0.2176 c 0.64064,-0.11969 1.8156,-0.47373 2.61104,-0.78676 z m -62.12904,0.29811 c 0.83172,-0.10399 1.57964,-0.25647 1.66204,-0.33886 0.0824,-0.0824 0.0289,-0.96954 -0.11891,-1.97143 -0.14779,-1.0019 -0.34073,-3.3151 -0.42878,-5.14043 l -0.16005,-3.31883 -2.82077,0.34681 c -1.55144,0.19074 -4.66625,0.43405 -6.92182,0.54068 l -4.10104,0.19389 -0.0943,0.66146 c -0.0519,0.3638 -0.01,2.59622 0.0943,4.96093 l 0.1886,4.29948 5.59424,-0.0222 c 3.07682,-0.0122 6.27473,-0.1074 7.10647,-0.21138 z m 5.76379,-0.83654 c 1.91757,-0.29014 10.37413,-2.07809 10.52555,-2.22538 0.10747,-0.10457 -1.14517,-9.90177 -1.28373,-10.04033 -0.0638,-0.0638 -1.21994,0.11044 -2.56921,0.38719 -1.3493,0.27676 -3.90864,0.74374 -5.68741,1.03775 -1.77879,0.294 -3.63876,0.60264 -4.13326,0.68588 l -0.89914,0.15131 0.17561,3.88327 c 0.0966,2.13579 0.31125,4.50598 0.47704,5.26708 0.26104,1.19843 0.37568,1.3684 0.85579,1.26865 0.30491,-0.0633 1.44736,-0.25029 2.53876,-0.41542 z m -98.345026,-3.22924 c 0.640776,-0.9095 3.483509,-4.98739 6.317189,-9.06198 2.833679,-4.07458 6.948855,-9.99143 9.144836,-13.14857 l 3.99269,-5.74024 -0.886521,-0.6762 c -2.139842,-1.63213 -10.56499,-6.23186 -11.41467,-6.23186 -0.123524,0 -0.569127,1.33945 -0.99023,2.97656 -1.117526,4.34457 -2.37994,7.82638 -4.043365,11.15185 -1.498738,2.99619 -7.894556,13.8249 -9.510067,16.10137 -0.490974,0.69186 -0.922274,1.38279 -0.958445,1.53543 -0.0468,0.19749 6.638247,4.63815 7.130761,4.73673 0.02903,0.006 0.577049,-0.73358 1.217822,-1.64309 z m 121.628356,-2.33116 c 1.96454,-0.59087 4.52438,-1.39727 5.68855,-1.792 l 2.11666,-0.71771 0.0723,-4.69024 c 0.0397,-2.57963 -0.0198,-4.69193 -0.13229,-4.69402 -0.1125,-0.003 -3.2072,0.72212 -6.87708,1.60932 -6.64075,1.60542 -6.67075,1.61584 -6.29999,2.1866 0.52813,0.81298 1.46314,5.64443 1.46314,7.56036 0,0.88665 0.0893,1.61206 0.19844,1.61206 0.10914,-3e-5 1.80578,-0.48348 3.77031,-1.07437 z M 31.639023,212.56639 c 4.762495,-7.4109 9.064713,-15.02336 10.59493,-18.747 1.012574,-2.46398 3.071678,-9.45948 3.071678,-10.43556 0,-0.49395 -0.270198,-0.69384 -1.521354,-1.12554 -0.836745,-0.28868 -1.715863,-0.6047 -1.953594,-0.70223 -0.351387,-0.14417 -0.541125,0.18455 -1.014341,1.75739 -1.846471,6.13709 -9.553429,22.0979 -12.98095,26.88307 l -1.546516,2.15908 0.840597,0.60148 c 0.462327,0.33083 1.198986,0.8592 1.637022,1.17416 0.438036,0.31496 0.947931,0.58286 1.133102,0.59532 0.185171,0.0124 0.967912,-0.95962 1.739426,-2.16017 z m 96.422557,-1.3966 c 8.16581,-0.84783 18.23244,-2.65036 18.98076,-3.39865 1.08728,-1.08728 2.04417,-1.35533 4.91686,-1.37732 2.50251,-0.019 3.5492,-0.20256 9.71722,-1.7028 l 6.91261,-1.68135 -0.0599,-19.33181 -0.0599,-19.33178 4.9883,-10.01944 4.98832,-10.01944 -0.3125,-9.08813 c -0.17187,-4.99847 -0.23572,-9.33011 -0.14184,-9.62587 0.0939,-0.29576 0.34536,-0.53774 0.55882,-0.53774 0.30631,0 0.3587,-0.26508 0.24845,-1.25677 -0.0769,-0.69123 -0.2649,-2.62599 -0.41783,-4.29948 -0.48721,-5.33049 -1.34707,-11.7611 -1.61602,-12.08514 -0.4876,-0.58752 0.57935,-0.84405 2.28764,-0.55003 0.87312,0.15027 4.74265,0.28264 8.59895,0.29416 8.03434,0.024 10.68176,-0.28825 19.97605,-2.35602 8.88346,-1.97637 15.88436,-4.31413 20.76979,-6.935514 6.71052,-3.600675 16.08881,-10.846011 26.9539,-20.823641 10.52994,-9.669819 11.78157,-10.570255 17.30237,-12.447219 2.3155,-0.787226 3.05866,-0.934043 3.96875,-0.784053 1.27963,0.210894 1.95368,0.518977 1.82454,0.833953 -0.19651,0.479242 3.13132,1.986986 4.69942,2.129176 1.43958,0.130538 1.61825,0.08532 2.28074,-0.57717 0.6504,-0.650393 0.70509,-0.851683 0.5747,-2.115031 -0.17171,-1.663729 -1.02698,-3.440031 -2.68832,-5.583449 -2.53625,-3.272203 -3.33204,-4.595484 -3.59389,-5.976276 -0.14309,-0.754541 -0.21966,-1.412415 -0.17013,-1.461942 0.0495,-0.04953 0.78179,-0.371475 1.62724,-0.715438 2.97577,-1.210676 4.35615,-2.940884 4.42471,-5.546006 0.0772,-2.936237 -1.41124,-3.830261 -5.8936,-3.539862 -1.63483,0.105915 -3.13245,0.423219 -5.09132,1.078698 -2.72037,0.910293 -7.06078,2.913073 -7.06078,3.258031 0,0.316955 0.86945,1.14236 1.20333,1.14236 0.33832,0 0.64876,0.570349 0.64876,1.191964 0,0.195214 -0.30824,0.721259 -0.68498,1.168984 -0.5219,0.620247 -0.90297,0.814052 -1.60065,0.814052 -1.20518,0 -2.29368,-0.586492 -2.91772,-1.572096 l -0.50533,-0.798097 -2.17273,1.340638 c -1.19502,0.737352 -2.17276,1.434661 -2.17276,1.549575 0,0.401214 0.73012,0.810707 1.15485,0.647718 0.73221,-0.280969 0.8744,0.694754 0.18288,1.254723 -0.80759,0.653939 -2.0878,0.621236 -2.82591,-0.07219 l -0.59626,-0.560147 -5.37393,3.563358 c -6.50896,4.315984 -8.65269,5.618996 -12.78226,7.769402 -6.20202,3.229605 -14.85569,6.551626 -23.80845,9.139753 -7.76573,2.244963 -12.9804,3.012496 -19.03899,2.802287 -6.85895,-0.23798 -12.35237,-1.665481 -19.06506,-4.954185 -8.11805,-3.977225 -13.3123,-8.334261 -26.38636,-22.133445 -4.61219,-4.868 -10.94185,-11.024764 -16.37348,-15.926231 l -1.22028,-1.101159 -1.91905,0.791361 c -2.67846,1.104501 -4.8151,1.417698 -8.57909,1.257559 -4.55583,-0.193831 -7.54108,-0.914508 -17.98157,-4.341005 -5.07343,-1.665062 -9.271017,-2.980788 -9.327974,-2.923833 -0.05695,0.05696 -0.645173,1.045501 -1.307148,2.196763 -1.714386,2.981548 -3.336671,6.439525 -4.457575,9.501542 -0.532704,1.455208 -1.071592,2.893025 -1.197528,3.195151 l -0.228973,0.549314 -2.341735,-0.498573 c -3.410982,-0.726225 -10.113393,-0.915683 -13.189651,-0.372829 -1.309687,0.231113 -2.909472,0.575238 -3.555079,0.76472 l -1.173829,0.344511 3.819662,1.2617 c 4.976313,1.643761 12.41415,5.299715 11.876265,5.837597 -0.07567,0.07567 -2.5742,0.384971 -5.552297,0.687345 -16.388763,1.663994 -28.232738,3.834574 -38.331773,7.024859 l -2.094418,0.661625 -0.792104,1.913956 c -0.435658,1.052677 -1.233281,3.104581 -1.772494,4.559789 -0.539213,1.455209 -1.520703,3.925755 -2.18109,5.490104 -0.985263,2.333922 -1.300369,2.843959 -1.756151,2.842525 -0.305493,-0.0011 -2.519973,-0.236739 -4.921067,-0.523955 -2.401094,-0.287215 -4.960938,-0.570679 -5.688542,-0.629922 -0.727604,-0.05924 -1.561042,-0.200515 -1.852083,-0.313939 -0.291042,-0.113422 0.604038,0.9745 1.989066,2.417606 3.728648,3.885002 6.950861,8.007712 8.830127,11.297851 0.671777,1.176115 0.782635,1.255398 1.566455,1.120285 3.715258,-0.640423 44.241652,-5.673864 44.298939,-5.501999 0.06569,0.19707 4.024622,5.765929 8.764223,12.328252 l 1.684224,2.331934 0.568343,-0.533932 c 1.595001,-1.498425 3.882872,-1.651193 6.818096,-0.455268 1.583258,0.645083 7.100351,3.579431 14.832771,7.889025 5.6794,3.16537 7.03581,3.67544 9.8895,3.71886 l 2.13966,0.0326 4.75768,-2.68263 c 9.93701,-5.603015 12.20624,-6.350066 13.05613,-4.298225 0.65881,1.590535 -0.0269,3.317285 -3.58891,9.037405 -2.61348,4.19692 -4.48961,6.80527 -5.46928,7.60384 -0.94975,0.77417 -3.8966,1.81005 -8.80793,3.09618 -4.77009,1.24915 -7.64844,1.36033 -10.04784,0.38812 -6.1433,-2.48918 -20.565151,-12.19796 -22.689763,-15.27472 -1.40907,-2.04056 -1.874697,-3.497304 -1.9118,-5.981239 l -0.03465,-2.320035 -5.233702,-7.270533 -5.233702,-7.270536 -0.969023,0.145246 c -0.532963,0.07988 -6.42656,0.844111 -13.096877,1.698284 -6.670321,0.85417 -12.1807,1.60588 -12.245288,1.670468 -0.06459,0.06459 0.838806,6.701919 2.007542,14.749623 1.168734,8.047702 2.130584,14.761072 2.137442,14.918602 0.0069,0.15753 1.737781,1.71516 3.846494,3.46141 2.108713,1.74625 3.887986,3.41313 3.953939,3.70417 0.06595,0.29104 0.420878,2.37463 0.788723,4.63021 0.960773,5.89132 0.826317,5.46912 1.797185,5.64327 0.465291,0.0835 6.319237,1.40538 13.008774,2.93759 7.946363,1.82009 12.252714,2.69592 12.422187,2.52645 0.142666,-0.14267 0.369748,-0.2594 0.504622,-0.2594 0.149378,0 0.169674,2.97453 0.05193,7.61017 l -0.193296,7.61016 11.705043,12.43202 c 6.43777,6.83761 12.79021,13.5567 14.11651,14.93131 l 2.41147,2.49928 0.57676,13.37572 c 0.31721,7.35666 0.5851,14.29845 0.59531,15.42623 l 0.0185,2.05053 h 2.91794 c 1.60488,0 4.67074,-0.18198 6.81302,-0.40442 z m 31.27947,-93.49476 c -2.11005,-0.70893 -5.08323,-1.83866 -6.60707,-2.51052 -1.52382,-0.67185 -2.85642,-1.22155 -2.96135,-1.22155 -0.10491,0 -0.22736,0.49676 -0.2721,1.10392 -0.0484,0.65735 -0.2323,1.15363 -0.4545,1.22681 -0.31266,0.10298 -0.34502,-0.33715 -0.19952,-2.71493 0.18095,-2.95743 0.29543,-3.44078 0.74858,-3.16071 0.16426,0.10151 0.20238,0.62981 0.0965,1.33622 l -0.17519,1.16832 2.20036,1.01085 c 2.56889,1.18014 7.98674,3.20664 10.73319,4.01464 1.87873,0.55272 2.5055,1.04495 1.32292,1.03894 -0.32742,-0.002 -2.32172,-0.58306 -4.43177,-1.29199 z M 102.17107,79.092842 c -1.54945,-1.303772 -2.4801,-3.920898 -3.68267,-10.35613 -0.308875,-1.652863 -0.52487,-3.03544 -0.479991,-3.072392 0.04488,-0.03695 1.244431,-0.145666 2.665681,-0.241588 l 2.58409,-0.174403 0.28584,0.733256 c 1.19904,3.075839 1.80944,11.098476 0.96416,12.672019 -0.60756,1.130999 -1.34932,1.270408 -2.33711,0.439238 z m 85.74318,118.306788 c 6.61786,-5.35916 10.62225,-9.55191 14.10938,-14.77309 l 1.75093,-2.6216 -0.97364,-1.34714 c -3.07096,-4.24904 -3.02371,-4.19518 -3.35444,-3.82234 -0.17494,0.1972 -1.20372,1.42682 -2.28621,2.7325 -3.78917,4.5704 -13.0897,13.38047 -13.61307,12.8952 -0.1115,-0.10335 -0.12661,1.28931 -0.0336,3.09477 0.093,1.80549 0.16909,4.17156 0.16909,5.25791 0,1.53725 0.0734,1.91976 0.33073,1.72506 0.18191,-0.13761 1.93726,-1.55118 3.90081,-3.14127 z m -0.66987,-10.41474 c 4.67315,-4.20682 11.16724,-11.25567 12.16316,-13.20216 1.16329,-2.27368 0.98136,-6.24025 -0.4486,-9.78051 -1.85418,-4.59046 -6.63554,-11.14014 -12.9036,-17.67578 l -2.05684,-2.14464 -0.14497,3.73214 c -0.68215,17.56235 -0.81084,26.42784 -0.52581,36.22218 l 0.17418,5.98496 1.07241,-0.84897 c 0.58981,-0.46691 1.79133,-1.49617 2.67007,-2.28722 z m -10.22821,-13.37694 c 2.28415,-0.363 4.40322,-0.71802 4.70905,-0.78893 0.52673,-0.12214 0.56592,-0.35375 0.74353,-4.39525 0.10311,-2.34648 0.14145,-4.31235 0.0852,-4.36862 -0.14179,-0.14176 -10.60265,1.76616 -10.82567,1.97446 -0.17232,0.16094 0.16571,5.57468 0.4607,7.37845 0.0774,0.47294 0.26066,0.8599 0.4074,0.8599 0.14671,0 2.13561,-0.29701 4.41979,-0.66001 z M 2.8840271,170.272 c 1.1851587,-0.73247 1.9403536,-2.25494 1.9403536,-3.91174 0,-1.19182 -0.090445,-1.38875 -0.9713198,-2.11484 -0.5342255,-0.44035 -1.0775103,-0.73501 -1.2072964,-0.6548 -0.1297887,0.0802 -0.436835,-0.0355 -0.682326,-0.25708 -0.6546903,-0.591 -2.6295139,-1.0155 -4.2875785,-0.92164 -1.340688,0.0759 -1.456489,0.13422 -1.530413,0.77089 -0.09773,0.84174 0.867291,3.0572 2.16059,4.96019 0.529151,0.77861 0.9620937,1.48531 0.9620937,1.57045 0,0.0851 0.2673668,0.4394 0.5941483,0.78724 0.691433,0.736 1.568249,0.66964 3.0217481,-0.22867 z m 5.9191181,-9.03477 c 1.6050788,-1.08334 3.3428998,-5.75642 2.6335728,-7.0818 -0.724543,-1.35382 -8.2983866,-3.97179 -11.4582816,-3.96065 -2.5391774,0.009 -3.0066584,1.1085 -1.4540364,3.42001 1.3826465,2.05846 5.7553862,7.09705 6.6649126,7.6798 1.1003359,0.705 2.5176374,0.68251 3.6138326,-0.0574 z m 186.5081348,-7.9375 c 1.01026,-2.21902 1.20312,-3.10885 0.67379,-3.10885 -0.50448,0 -3.83569,1.49259 -3.83569,1.71863 0,0.16582 2.18043,3.00169 2.329,3.0291 0.044,0.008 0.41883,-0.72938 0.8329,-1.63888 z M 18.053547,147.46389 c 0,-2.33908 -1.500401,-4.54681 -2.761252,-4.06297 -0.907494,0.34823 -0.139047,3.72759 1.173763,5.16178 1.067702,1.16642 1.587489,0.80664 1.587489,-1.09881 z m 173.256413,-0.38187 c 1.6908,-2.57967 2.21269,-3.82912 2.11061,-5.0531 -0.0636,-0.76248 -0.20296,-0.98359 -0.66114,-1.04879 -0.76073,-0.10825 -3.17304,0.88384 -5.58271,2.29595 l -1.92992,1.13099 2.19451,2.34525 c 1.207,1.28988 2.26882,2.35312 2.3596,2.36274 0.0908,0.01 0.76989,-0.90525 1.50905,-2.03304 z m -177.748971,0.70174 c 1.093401,-0.23449 1.321652,-0.37467 1.184751,-0.7276 -0.09327,-0.24044 -0.339066,-1.08497 -0.546224,-1.87673 -0.360834,-1.3791 -0.352547,-1.46522 0.19731,-2.05052 0.82491,-0.87807 1.943272,-0.80174 2.875555,0.19627 0.414732,0.44397 0.831493,1.0512 0.926137,1.34939 0.163386,0.51479 0.215924,0.49968 1.039963,-0.29901 l 0.867884,-0.84119 -0.893892,-1.48445 c -1.099484,-1.82588 -1.952675,-4.05343 -1.952675,-5.09814 0,-1.07346 0.833519,-1.84215 1.997514,-1.84215 1.285007,0 2.257692,0.55797 3.49395,2.00426 l 1.046517,1.22432 1.329764,-2.60648 c 3.675091,-7.20359 5.084897,-13.14825 5.094107,-21.48009 0.0021,-1.85906 0.08448,-2.44126 0.33346,-2.35543 0.249542,0.086 0.315375,1.14687 0.268187,4.32152 -0.0344,2.31414 -0.120679,4.45435 -0.191733,4.75604 -0.115599,0.49081 0.08582,0.59873 1.914626,1.02584 1.124098,0.26253 5.972878,1.60631 10.775066,2.98618 10.908374,3.13443 10.703907,3.08 10.885903,2.898 0.0832,-0.0832 -0.405564,-3.99806 -1.086146,-8.6997 -4.307592,-29.757894 -5.187945,-35.773873 -5.241724,-35.819773 -0.03306,-0.02822 -3.835588,0.44082 -8.450054,1.042313 l -8.389937,1.093623 -1.308093,1.469104 c -1.871972,2.102387 -6.339056,4.988655 -7.749936,5.007377 -0.400704,0.0053 -0.405435,0.130144 -0.05571,1.469396 0.386159,1.478764 0.30263,2.092449 -0.258239,1.897284 -0.857676,-0.298442 -3.723807,1.311214 -3.962932,2.225635 -0.187788,0.718098 0.784405,1.800376 2.13873,2.380901 0.994043,0.4261 1.128639,0.56794 0.853514,0.89944 -0.179646,0.21647 -0.481509,0.39357 -0.670808,0.39357 -0.60475,0 -1.927723,1.31149 -2.096045,2.07786 -0.293669,1.33706 0.818959,3.24119 2.206937,3.77691 0.91536,0.3533 2.299237,0.009 3.072048,-0.7634 0.742905,-0.7429 1.07334,-0.66752 0.803315,0.18326 -0.251535,0.79251 -1.491174,1.33995 -3.034216,1.33995 -1.159891,0 -1.472898,-0.12431 -2.382845,-0.9464 -1.848223,-1.66975 -1.893734,-4.03123 -0.107966,-5.60203 0.537665,-0.47295 0.842817,-0.8599 0.678117,-0.8599 -0.164704,0 -0.720323,-0.36952 -1.234708,-0.82116 -1.784361,-1.566688 -0.883902,-3.593264 2.091949,-4.708154 1.567243,-0.587161 1.560616,-0.511469 0.36158,-4.127976 -1.020527,-3.078089 -2.799279,-6.84843 -4.285896,-9.084619 -1.514091,-2.27752 -4.285028,-4.93486 -5.882799,-5.641631 -2.8858234,-1.276538 -7.7836657,-0.214257 -9.236678,2.003319 -0.3476943,0.530648 -0.3619765,0.732552 -0.083381,1.178655 0.488233,0.781783 0.013573,1.929649 -0.9991355,2.416151 -0.6355133,0.305303 -0.9226235,0.702114 -1.2443485,1.719792 -0.638482,2.019649 -0.640038,2.050875 -0.127762,2.563151 0.7407776,0.740777 0.6102216,2.09446 -0.314193,3.257682 -0.725151,0.912484 -0.793694,1.172874 -0.793107,3.012942 0.0016,4.975193 1.051973,14.678518 2.409079,22.254768 0.4301014,2.40109 0.8457935,4.57398 0.9237609,4.82864 0.091295,0.29819 5.292e-4,0.46302 -0.2551138,0.46302 -0.5106353,0 -0.5310426,-0.0767 -1.4775921,-5.55625 -1.473443,-8.52966 -2.670916,-20.419243 -2.320028,-23.035308 l 0.133591,-0.99599 -2.467938,0.147241 c -2.182813,0.130228 -4.819687,-0.144981 -6.101321,-0.636791 -0.804847,-0.308848 -0.385249,10.220568 0.702421,17.626618 1.822384,12.40881 6.348,28.11748 9.761212,33.88173 1.3718514,2.31679 3.1572967,4.01286 5.414944,5.14389 3.2608811,1.63363 6.339493,2.10575 9.421284,1.44483 z M 1.7816724,140.29873 c -1.1599942,-0.50628 -2.7185118,-2.35332 -2.9280114,-3.47006 -0.66013,-3.51879 1.6651525,-6.55714 5.0182594,-6.55714 3.075813,0 5.1857936,2.12999 5.1857936,5.23497 0,3.11705 -2.0281053,5.17162 -5.0826881,5.14902 -0.7697814,-0.006 -1.756791,-0.16625 -2.1933535,-0.35679 z m 4.717124,-1.1335 c 1.1102789,-0.71357 2.0144237,-2.35252 2.0239408,-3.66881 0.00754,-1.043 -0.997757,-2.99787 -1.8667492,-3.63001 -2.5119357,-1.82731 -6.4565901,-0.42558 -7.0556174,2.5072 -0.8563266,4.1925 3.3185577,7.09236 6.8984258,4.79162 z m 17.5872506,6.21023 c 0.403371,-0.40337 0.408911,-2.51766 0.01082,-4.1294 -0.333253,-1.34924 -1.628555,-3.54508 -2.633946,-4.46516 -1.32149,-1.20936 -3.196166,-1.28345 -3.362441,-0.1329 -0.155477,1.07585 1.429237,5.09145 2.60074,6.59017 0.539557,0.69026 2.610229,2.45479 2.880691,2.45479 0.10265,0 0.329509,-0.14288 0.504134,-0.3175 z M 183.8974,140.39098 c 0.68156,-0.63497 0.74337,-1.37507 0.1633,-1.95516 -1.30561,-1.30562 -2.56175,0.67623 -1.37155,2.16391 0.35968,0.44956 0.53396,0.41945 1.20825,-0.20875 z m 1.05823,-5.2375 c 0.56107,-0.85633 0.64341,-5.28196 0.11022,-5.92443 -0.43699,-0.52653 -1.82472,-0.7995 -2.4267,-0.47733 -0.57436,0.3074 -1.14803,2.94246 -0.92681,4.25715 0.30985,1.8413 0.40621,2.12409 0.88796,2.60585 0.65091,0.65088 1.77025,0.43168 2.35533,-0.46124 z M 61.611796,129.61952 c -0.07351,-0.25466 -0.46637,-2.53035 -0.873011,-5.05708 l -0.739349,-4.59406 -3.444298,-2.87101 c -1.894364,-1.57906 -3.472675,-2.72642 -3.50736,-2.54969 -0.03468,0.17673 0.382038,3.34862 0.926042,7.04865 l 0.989103,6.72732 3.175,0.84916 c 3.878963,1.03744 3.635356,1.00611 3.473873,0.44671 z m 57.050724,-12.50794 2.3163,-0.58835 -0.93705,-1.0372 c -0.51538,-0.57046 -1.13747,-1.47844 -1.38239,-2.01774 -0.24496,-0.5393 -0.47578,-1.02727 -0.51295,-1.08439 -0.0372,-0.0571 -0.25027,0.0478 -0.47355,0.23306 -0.62831,0.52146 -3.90594,0.19066 -6.35371,-0.64127 -7.07586,-2.40487 -18.088142,-9.18309 -23.203635,-14.282165 l -2.145996,-2.139106 0.163949,1.792888 c 0.29868,3.266283 1.430152,5.068423 4.91345,7.825883 6.25144,4.94878 15.463632,10.66252 19.743072,12.24538 1.69574,0.62721 4.64788,0.51209 7.87251,-0.30699 z m 8.59571,-2.66358 c 1.48537,-0.72015 1.82086,-1.04544 3.33407,-3.23257 2.11484,-3.05671 5.35442,-8.3658 6.16585,-10.10476 0.99094,-2.123631 0.80676,-3.571876 -0.45424,-3.571876 -1.52974,0 -3.80214,1.098698 -13.07849,6.323386 -1.60073,0.90158 -3.22691,1.7058 -3.6137,1.78717 -0.5664,0.11915 -0.75954,0.3713 -0.99219,1.29524 -0.76835,3.05136 -0.0693,6.13987 1.83743,8.11807 l 1.21083,1.25622 1.96946,-0.53507 c 1.08317,-0.29429 2.71261,-0.8954 3.62098,-1.33581 z m -9.77667,-2.46095 c 0.21148,-0.20655 0.37864,-1.23278 0.43894,-2.69457 0.0536,-1.29854 0.18164,-2.6884 0.28461,-3.08858 0.18376,-0.71418 0.1651,-0.72761 -1.01068,-0.72761 -2.04872,0 -4.24455,-0.90017 -10.18708,-4.17613 -13.671261,-7.536628 -15.183524,-8.259282 -17.283789,-8.259282 -1.013172,0 -2.352059,0.575453 -2.980706,1.281102 -0.493921,0.554424 -0.488482,0.573508 0.511347,1.793668 1.965135,2.398186 8.338585,7.260092 13.236978,10.097652 2.91033,1.68591 7.97771,4.14953 10.16653,4.94269 3.82636,1.38654 5.98583,1.64954 6.82385,0.83106 z M 24.475289,90.328899 c 1.165403,-0.618464 2.896997,-1.845588 3.847989,-2.726941 l 1.729076,-1.602465 -1.017296,-1.883452 C 27.425208,81.135515 24.083195,76.862418 20.373972,73.041975 17.325708,69.902307 16.803637,69.475214 15.584919,69.124144 8.7660983,67.159891 4.9462055,66.489071 0.4587557,66.467807 l -3.7041667,-0.01754 -1.984375,0.952076 c -2.161394,1.037008 -4.120647,2.740155 -4.390903,3.816946 -0.391364,1.559313 4.30495,5.921218 7.438747,6.909061 l 1.4238922,0.448842 0.8729874,-0.857377 c 0.480142,-0.471556 1.8146051,-1.32488 2.9654765,-1.896274 1.8836402,-0.935209 2.2929612,-1.03864 4.1010417,-1.036315 1.5788613,0.0021 2.3099392,0.142891 3.4173692,0.65844 1.681551,0.78282 4.464327,3.372799 5.923253,5.512879 1.292082,1.895337 3.614283,6.662954 4.317775,8.864658 0.394618,1.235024 0.641554,1.630188 1.018702,1.630188 0.273801,0 1.451332,-0.506016 2.616734,-1.12448 z M -2.540024,88.974703 c 0.882923,-0.580141 1.040212,-0.982011 0.755669,-1.930709 -0.123722,-0.412494 -0.235181,-0.604221 -0.24769,-0.426056 -0.01252,0.178165 -0.409694,0.530741 -0.882637,0.783505 -1.649672,0.881666 -7.486613,0.338394 -9.328129,-0.868211 -0.557638,-0.365382 -0.659892,-0.637101 -0.659892,-1.75355 0,-1.308918 -0.0067,-1.319477 -0.727061,-1.138687 -0.987375,0.247814 -0.99273,0.25781 -0.99273,1.85353 0,2.051579 1.044413,3.004677 4.101041,3.742476 2.110709,0.509476 7.054104,0.347019 7.981429,-0.262298 z m -1.34647,-2.020517 c 0.903187,-0.250896 0.961012,-0.338447 1.265965,-1.916752 0.17575,-0.909617 0.385588,-1.964349 0.466302,-2.343851 0.13475,-0.633561 0.06117,-0.703692 -0.899395,-0.857293 -1.497145,-0.239403 -4.946023,-2.04054 -6.844943,-3.57469 l -1.626069,-1.313717 -0.159382,1.365769 c -0.08766,0.751173 -0.228587,2.714947 -0.313171,4.363944 -0.182132,3.550685 -0.180229,3.55355 2.666359,4.021249 1.018646,0.167365 2.030677,0.339291 2.248959,0.382058 0.898564,0.176051 2.306452,0.120219 3.195375,-0.126717 z m 3.79539,-6.066967 C 0.1526037,80.684961 0.3164892,80.273788 0.273087,79.973502 0.21272,79.555857 -0.0747131,79.381857 -0.9498092,79.233214 -3.725672,78.761708 -7.291652,76.382948 -9.372685,73.614562 c -1.009142,-1.342456 -1.176475,-1.731693 -1.058084,-2.461247 0.177112,-1.091403 -0.123884,-1.092993 -1.271413,-0.0067 -1.433947,1.357418 -1.365642,2.532838 0.263398,4.532656 3.094685,3.799052 9.50206,6.739681 11.34768,5.207955 z M 31.905363,69.823692 c 0.667803,-1.328889 4.265941,-10.588564 4.797706,-12.346723 0.360145,-1.190736 -0.08789,-1.003689 7.333438,-3.061591 9.88927,-2.742256 23.926117,-5.078892 35.995687,-5.992 1.273307,-0.09633 2.315104,-0.265279 2.315104,-0.375441 0,-0.850451 -10.6625,-5.285362 -14.882813,-6.19029 -1.16917,-0.250698 -0.851543,-0.615558 1.046126,-1.201687 5.311145,-1.640445 10.736151,-1.751309 18.603322,-0.380169 l 0.930177,0.162118 0.456203,-1.481529 c 0.789995,-2.565529 2.77845,-7.049523 4.572055,-10.310047 0.95108,-1.728931 1.686666,-3.186076 1.634636,-3.238106 -0.258098,-0.258101 -6.480659,-1.736876 -8.920123,-2.119844 -4.207293,-0.660498 -12.445487,-0.602885 -16.409882,0.11476 -5.232881,0.947272 -11.504641,3.297209 -18.210612,6.823247 -8.125301,4.272333 -12.188536,7.262264 -18.730605,13.782912 -3.684903,3.672838 -9.993477,16.088286 -11.796459,23.215755 -0.485106,1.917698 -0.49412,2.124425 -0.10504,2.408928 0.234083,0.171165 2.301756,0.516904 4.594831,0.768305 2.293073,0.251405 4.288288,0.497438 4.433809,0.546746 0.14552,0.04931 0.589999,0.09905 0.987729,0.110537 0.605808,0.01749 0.825627,-0.183038 1.354711,-1.235881 z M 260.28755,52.017575 c 0.0726,-0.117477 -0.10914,-0.290139 -0.40388,-0.383688 -0.59121,-0.187642 -1.32387,-1.407228 -1.32387,-2.203722 0,-0.772501 0.65413,-1.176578 1.57665,-0.973958 0.94271,0.207055 1.09249,-0.221805 0.23728,-0.679489 -0.69734,-0.373216 -2.54466,-0.156017 -3.06052,0.359843 -0.93699,0.937017 -0.24733,3.245567 1.19547,4.001522 0.66236,0.347048 1.52606,0.288538 1.77887,-0.120508 z m -0.52078,-3.101654 c -0.0887,-0.08869 -0.36676,0.05393 -0.61796,0.316928 -0.43661,0.457134 -0.42952,0.46423 0.16124,0.161251 0.33991,-0.174308 0.54541,-0.389491 0.45672,-0.478179 z m 8.5634,-0.228431 c 0.63945,-0.812924 0.70996,-1.419526 0.16497,-1.419526 -0.21087,0 -0.71181,-0.430562 -1.11321,-0.956803 -1.35734,-1.779566 -1.03351,-4.864554 0.51054,-4.863708 0.63982,2.65e-4 2.04441,1.066514 2.04441,1.551816 0,0.373943 0.0786,0.373332 0.91358,-0.0071 0.81367,-0.370727 0.81307,-0.356003 0.0703,-1.677321 -1.44749,-2.574883 -5.24852,-2.664037 -6.52947,-0.153152 -1.70548,3.343021 -0.25223,8.222943 2.4488,8.222943 0.70223,0 1.08119,-0.177294 1.4901,-0.69714 z m 0.34994,-4.647472 c 0.40018,-0.144873 0.72761,-0.43035 0.72761,-0.634397 0,-0.53662 -0.97383,-1.429324 -1.55919,-1.429324 -0.59222,0 -0.82206,0.494824 -0.82206,1.76974 0,0.783394 0.0741,0.902665 0.46302,0.745048 0.25466,-0.103214 0.79044,-0.306194 1.19062,-0.451067 z M 36.971256,38.766999 c 3.295473,-3.153412 7.832791,-6.091991 15.08125,-9.767318 10.606535,-5.378037 16.438105,-6.948601 25.796875,-6.947635 8.015362,7.94e-4 11.977367,0.832265 26.171889,5.492242 4.59593,1.508815 9.2492,2.988003 10.34061,3.287082 5.37329,1.472451 10.76251,1.763776 14.85485,0.803011 3.10959,-0.730049 4.56565,-1.703594 5.7032,-3.813292 5.82842,-10.809241 6.33058,-12.738258 6.08777,-23.3855164 -0.15293,-6.7049306 -0.5547,-10.3752906 -1.53834,-14.0530226 -0.59955,-2.241651 -1.78866,-4.823233 -2.29092,-4.973569 -0.95348,-0.285393 -1.78636,4.423402 -2.16676,12.24961 -0.40825,8.3995335 -0.56896,10.1864578 -0.91619,10.1864578 -0.16857,0 -0.69342,-1.1804491 -1.16634,-2.6232193 -2.70632,-8.2566105 -9.01867,-16.9781345 -15.75464,-21.7676005 -2.5182,-1.79052 -7.25898,-4.038497 -9.61174,-4.557694 -2.15696,-0.47599 -5.81872,-0.550338 -7.26878,-0.147584 -0.53406,0.148333 -1.24649,0.49276 -1.583173,0.765394 -0.590786,0.478388 -0.597385,0.526688 -0.188982,1.38312 0.232752,0.48808 1.659555,2.260857 3.170675,3.9395 3.96317,4.402521 5.22972,5.912451 7.20398,8.588293 2.35865,3.196812 2.35818,3.898804 -0.001,2.097706 -3.44099,-2.626574 -7.88888,-3.949998 -15.469527,-4.602802 -5.146704,-0.443206 -10.871507,0.216021 -13.459526,1.549902 -1.231011,0.634471 -1.301501,1.211967 -0.227648,1.865016 0.967918,0.588627 4.967812,1.601759 6.345817,1.607331 1.197187,0.0048 2.111087,0.267536 1.933033,0.555635 -0.07971,0.128977 -0.548579,0.234503 -1.041927,0.234503 -1.258326,0 -6.048996,0.935485 -9.655108,1.885373 C 65.388765,1.7608151 54.627225,6.6888012 44.636762,13.584546 36.657161,19.092327 30.027314,25.915095 28.34014,30.355377 c -1.208693,3.181024 -0.259395,6.175502 2.54861,8.039348 1.609418,1.068271 4.054914,2.045415 4.489926,1.794031 0.148352,-0.08573 0.865042,-0.725519 1.592646,-1.421757 z"
       id="path3036" /></g></svg>
